<svg width="188" height="32" viewBox="0 0 188 32" fill="none" xmlns="http://www.w3.org/2000/svg">
    <g clip-path="url(#clip0_1_631)">
        <path
            d="M46.21 31.9871C42.8689 26.2063 39.7793 20.8632 36.4741 15.1478C35.9516 17.1988 35.5335 18.8154 35.1253 20.4354C34.5799 22.5974 34.041 24.7595 33.5054 26.9216C32.4733 31.0824 32.1565 31.2686 27.8193 30.7134C26.5031 30.5436 27.2478 29.7597 27.3588 29.3058C29.0081 22.5485 30.7032 15.801 32.3884 9.05019C33.1004 6.20553 33.8156 3.36413 34.6582 0.0197754C37.9536 5.7091 41.04 11.0392 44.3843 16.8101C44.9722 14.5468 45.4392 12.793 45.8801 11.0326C46.5823 8.24023 47.3139 5.45109 47.9377 2.64235C48.1696 1.59724 48.6137 1.23145 49.685 1.31637C51.024 1.42088 52.3794 1.34249 53.872 1.34249C51.3245 11.5062 48.826 21.5066 46.21 31.9871Z"
            fill="#F7DC13" />
        <path
            d="M95.0496 16.8394C96.3038 11.8098 97.4697 7.28974 98.5377 2.74351C98.7924 1.65267 99.1909 1.19544 100.367 1.30648C101.653 1.42732 102.963 1.33588 104.514 1.33588C101.983 11.48 99.4816 21.4902 96.859 32.0001C93.5342 26.2552 90.4414 20.9088 87.1166 15.164C86.3589 18.1556 85.7122 20.6998 85.0688 23.2473C84.5365 25.3538 84.0172 27.4637 83.4816 29.5669C83.3673 30.0144 83.4293 30.6578 82.7565 30.6774C81.2378 30.7198 79.6996 30.8243 78.2005 30.6414C77.273 30.5271 77.8935 29.6584 78.0045 29.2044C79.2325 24.1389 80.5161 19.0864 81.7833 14.0274C82.9133 9.5106 84.0401 4.99703 85.2877 -0.00317383C88.6059 5.72861 91.7086 11.0783 95.0496 16.8394Z"
            fill="#F7DC13" />
        <path
            d="M177.973 16.8265C179.148 12.1333 180.327 7.90056 181.232 3.60907C181.621 1.76707 182.307 1.17266 184.204 1.28044C187.464 1.46986 187.464 1.32943 186.65 4.57254C184.527 13.051 182.414 21.5295 180.292 30.0079C180.164 30.524 180.004 31.0302 179.743 31.9447C176.477 26.2978 173.381 20.9383 170.046 15.1739C169.158 18.6979 168.381 21.7646 167.61 24.8346C167.319 25.994 167.038 27.1535 166.748 28.3129C166.14 30.7166 166.14 30.7166 163.593 30.7166C160.542 30.7166 160.545 30.7166 161.306 27.6662C163.42 19.1845 165.526 10.7028 167.642 2.22104C167.793 1.61357 167.989 1.01263 168.266 0.0458984C171.549 5.72216 174.635 11.0588 177.973 16.8265Z"
            fill="#F7DC13" />
        <path
            d="M48.4404 30.7197C55.5341 20.5233 62.4286 10.6078 69.5778 0.329834C70.3714 4.36658 71.0834 7.95588 71.7889 11.5485C72.9516 17.4599 74.0881 23.3811 75.2933 29.2827C75.5121 30.3572 75.4566 30.883 74.1632 30.736C72.6707 30.5629 70.7438 31.3468 69.7738 30.4192C68.9017 29.5864 68.8919 27.7052 68.7776 26.2617C68.6339 24.4556 67.8468 23.9232 66.0995 24.0898C64.3229 24.2596 62.5168 24.1878 60.7303 24.1028C59.6427 24.0539 58.9242 24.3543 58.3331 25.3145C57.3631 26.8822 56.2363 28.3519 55.201 29.8804C54.8483 30.4029 54.4955 30.7556 53.777 30.7328C52.1016 30.6838 50.4261 30.7197 48.4404 30.7197ZM63.1112 18.554C67.272 18.8054 67.2753 18.8054 66.4947 15.0006C66.449 14.7752 66.5633 14.4454 66.1224 14.3278C65.9656 14.5172 65.7893 14.7099 65.639 14.9222C64.8389 16.0686 64.042 17.2182 63.1112 18.554Z"
            fill="#F7DC13" />
        <path
            d="M152.596 0.303955C153.596 5.32702 154.497 9.8406 155.386 14.3542C156.375 19.3642 157.335 24.3774 158.354 29.3776C158.563 30.4064 158.429 30.8441 157.247 30.7461C155.738 30.622 153.818 31.1968 152.819 30.4619C151.933 29.8087 151.891 27.7871 151.79 26.3468C151.659 24.4362 150.794 23.9561 149.004 24.0998C146.793 24.2795 144.271 23.5413 142.413 24.3774C140.548 25.2168 139.686 27.7643 138.451 29.603C137.86 30.4848 137.22 30.8081 136.182 30.7428C134.722 30.6514 133.255 30.72 131.439 30.72C138.494 20.5856 145.405 10.6473 152.596 0.303955ZM146.14 18.5379C150.477 18.8449 150.48 18.8449 149.507 14.9061C149.458 14.7069 149.344 14.524 149.193 14.1843C148.168 15.6442 147.221 16.9963 146.14 18.5379Z"
            fill="#F7DC13" />
        <path
            d="M114.443 30.7003C107.052 30.7656 102.019 25.0599 102.77 18.1165C103.704 9.50735 111.736 1.88784 120.384 1.43387C122.984 1.2967 125.413 2.03807 127.794 3.00154C128.526 3.29874 128.523 3.6678 128.095 4.20668C127.994 4.33405 127.922 4.48102 127.833 4.62146C127.112 5.77108 126.619 7.23097 125.603 7.98541C124.46 8.8313 123.271 7.38447 122.046 7.11013C115.155 5.55879 107.245 13.0411 108.548 19.965C109.26 23.7503 113.195 26.0658 117.199 25.0142C118.349 24.7137 119.463 24.2826 120.59 23.9038C121.243 23.6849 121.651 23.8025 121.631 24.5929C121.631 24.6451 121.644 24.7007 121.651 24.7562C122.161 29.7172 123.336 28.4631 118.209 30.0601C116.801 30.4912 115.348 30.6741 114.443 30.7003Z"
            fill="#F7DC13" />
        <path
            d="M0 30.7165C2.12941 22.2054 4.20331 13.8837 6.29353 5.56529C7.33537 1.40771 7.34517 1.41097 11.6889 1.41097C15.275 1.41097 18.8577 1.45343 22.4438 1.38485C23.6489 1.36198 24.067 1.54161 23.7208 2.89046C22.7018 6.85862 22.7573 6.87168 18.665 6.87168C16.6565 6.87168 14.6446 6.91087 12.636 6.85208C11.7771 6.82922 11.3786 7.07744 11.2154 7.96578C10.9606 9.35055 10.6046 10.7255 10.1898 12.0711C9.88937 13.0444 10.1572 13.322 11.137 13.2991C13.4166 13.2501 15.6995 13.3122 17.9792 13.2665C18.9165 13.2501 19.1811 13.4363 18.9394 14.4651C17.9629 18.6259 18.0053 18.6259 13.7236 18.6422C12.0482 18.6488 9.98408 18.1262 8.8018 18.9068C7.59665 19.7037 7.77955 21.9572 7.34844 23.5706C6.81935 25.5661 6.29026 27.5616 5.84609 29.5767C5.66646 30.403 5.38232 30.7851 4.46785 30.7361C3.02429 30.6578 1.56767 30.7165 0 30.7165Z"
            fill="#F7DC13" />
        <path
            d="M126.697 30.7263C123.924 30.7263 123.914 30.723 124.568 28.1102C126.664 19.7297 128.794 11.3558 130.835 2.95898C131.139 1.71791 131.638 1.33252 132.909 1.35865C136.848 1.43377 136.861 1.37825 135.914 5.1929C134.023 12.7863 132.122 20.3764 130.218 27.9665C129.522 30.7295 129.516 30.7263 126.697 30.7263Z"
            fill="#F7DC13" />
        <path
            d="M21.8202 30.7198C19.0801 30.7198 19.0801 30.7198 19.7365 28.0841C21.83 19.7167 23.9529 11.3525 25.9811 2.96878C26.2881 1.69832 26.8041 1.35539 28.055 1.37825C31.9807 1.44684 31.9741 1.39132 31.0139 5.22557C29.1164 12.8059 27.2254 20.3862 25.3344 27.9665C24.6486 30.7198 24.6551 30.7198 21.8202 30.7198Z"
            fill="#F7DC13" />
    </g>
    <defs>
        <clipPath id="clip0_1_631">
            <rect width="187.101" height="32" fill="white" />
        </clipPath>
    </defs>
</svg>